<svg xmlns="http://www.w3.org/2000/svg" viewBox="0 0 615.29 615.29"><defs><style>.cls-1{fill:#005ff9;}.cls-2{fill:#89d631;}.cls-3{fill:#fff;}</style></defs><g id="Capa_2" data-name="Capa 2"><g id="Capa_1-2" data-name="Capa 1"><path class="cls-1" d="M307.65,0h0C137.74,0,0,137.74,0,307.65H0c0,169.9,137.74,307.64,307.65,307.64h0a306.28,306.28,0,0,0,135.77-31.53,73.76,73.76,0,0,1,106.81-86.9,306.33,306.33,0,0,0,65.06-189.21h0C615.29,137.74,477.55,0,307.65,0Z"/><circle class="cls-2" cx="513.54" cy="560.84" r="48.25"/><path class="cls-3" d="M489.9,266.41A183.23,183.23,0,0,0,335.34,111.85c-114.06-16.61-211.95,71.39-212,182.25h0V505.46h71.91V440.57A182.19,182.19,0,0,0,280,476.35,184.45,184.45,0,0,0,489.9,266.41Zm-181.28,140A112.36,112.36,0,0,1,195.29,293.12c.52-61,50.37-110.86,111.38-111.38A112.36,112.36,0,0,1,420,295.08C419.48,356.08,369.63,405.94,308.62,406.46Z"/></g></g></svg>